<svg width="15" height="20" viewBox="0 0 15 20" fill="none" xmlns="http://www.w3.org/2000/svg">
<path d="M14.0043 10.3706C13.8231 9.97365 13.5731 9.58274 13.2075 9.13123C12.2856 7.9979 12.0043 5.47062 12.0012 5.44638C11.9887 5.32517 11.9012 5.22517 11.7856 5.1888C11.6668 5.15244 11.5387 5.18577 11.4543 5.27668C10.3543 6.47971 10.8168 8.33729 11.0668 9.07971C11.1356 9.28274 11.2106 9.52214 11.2637 9.76456C11.6699 11.7252 10.8856 12.613 10.7012 12.7918C10.5231 12.8403 10.4012 12.8161 10.2887 12.6979C9.90118 12.2827 9.77306 10.9221 9.95431 9.14941C9.99184 8.7888 9.98244 8.46456 9.92931 8.16153C9.54706 5.98265 8.1455 4.58502 7.78869 4.09487C6.80744 2.67668 6.70744 0.316077 6.70431 0.294865C6.70119 0.182744 6.63556 0.0827441 6.53244 0.0342593C6.43244 -0.0142256 6.31056 -0.00816496 6.21681 0.0554714C4.57931 1.14335 4.71994 3.76456 4.94806 5.2282C5.00119 5.56759 5.10431 5.91305 5.28244 6.34941C5.91681 7.91002 5.15744 9.92517 5.15119 9.94335C5.14494 9.96153 5.13869 9.97668 5.13556 9.99487C5.03869 10.4918 4.87619 10.7888 4.69494 10.7888C4.67619 10.7888 4.65744 10.7858 4.63556 10.7797C4.41369 10.7343 4.29806 10.504 4.29494 10.304C4.28244 7.71911 1.62931 6.84941 1.60119 6.84032C1.48244 6.80396 1.35119 6.83729 1.26994 6.93123C1.18556 7.02517 1.16994 7.15547 1.22619 7.26456C1.25744 7.3282 1.35744 7.60699 1.28869 8.59184C1.22931 9.47668 1.06369 10.3524 0.798063 11.1918C0.166813 13.204 0.266813 15.11 0.273063 15.2009C0.758469 20.3617 8.34928 21.266 12.8543 18.3585C13.3481 18.0403 13.7512 17.6767 14.0481 17.2767C15.7106 15.0343 14.7325 11.9888 14.0043 10.3706ZM2.45747 15.3009C2.46684 15.4676 2.33559 15.61 2.16372 15.6191H2.14497C1.97934 15.6191 1.84184 15.4949 1.83247 15.3343C1.80434 14.8918 1.81059 14.4282 1.84497 13.9252C1.85747 13.7585 2.00747 13.6343 2.17934 13.6433C2.35122 13.6554 2.48247 13.8009 2.46997 13.9676C2.43556 14.4464 2.42934 14.8827 2.45747 15.3009ZM2.61056 12.6161C2.59181 12.7706 2.45744 12.8827 2.30119 12.8827C2.28869 12.8827 2.27619 12.8827 2.26056 12.8797C2.09181 12.8585 1.96994 12.71 1.98869 12.5434L2.13869 11.3737C2.16056 11.21 2.31369 11.0918 2.48869 11.11C2.66056 11.1312 2.78244 11.2827 2.76056 11.4494L2.61056 12.6161Z" fill="#FF6B09"/>
<path d="M11.8907 4.1459C11.7203 4.12029 11.6034 3.96584 11.6297 3.80057C11.6492 3.67745 11.7621 3.04714 12.0685 2.7302C12.1864 2.60799 12.3839 2.60163 12.5103 2.71644C12.6361 2.83081 12.6425 3.0226 12.5244 3.14481C12.3948 3.27902 12.2843 3.66311 12.2473 3.89293C12.221 4.05645 12.0637 4.1712 11.8907 4.1459Z" fill="#FF6B09"/>
<path d="M0.497681 5.65529C0.437868 5.42992 0.289243 5.05826 0.146587 4.93692C0.0167434 4.82653 0.00377455 4.63507 0.117587 4.50932C0.231118 4.38326 0.428399 4.37038 0.558556 4.4812C0.895306 4.7675 1.07124 5.38407 1.10315 5.50465C1.14587 5.66668 1.04518 5.8315 0.878243 5.87323C0.707618 5.91483 0.540212 5.81462 0.497681 5.65529Z" fill="#FF6B09"/>
</svg>
