<svg viewBox="0 0 406 472" fill="none" xmlns="http://www.w3.org/2000/svg"><path d="M423.789 322.005c-5.498-12.326-13.082-24.463-24.172-38.483-27.964-35.19-36.495-113.662-36.59-114.414-.379-3.764-3.033-6.869-6.54-7.998a9.609 9.609 0 0 0-10.048 2.728c-33.367 37.355-19.338 95.032-11.755 118.085 2.086 6.304 4.361 13.737 5.971 21.264 12.323 60.877-11.469 88.446-17.062 93.997-5.403 1.505-9.1.753-12.513-2.917-11.754-12.89-15.64-55.137-10.142-110.18 1.138-11.197.853-21.265-.759-30.674-11.595-67.654-54.109-111.051-64.932-126.27-29.765-44.034-32.798-117.331-32.893-117.99-.094-3.481-2.085-6.586-5.213-8.092-3.034-1.505-6.73-1.317-9.574.659-49.671 33.779-45.405 115.167-38.486 160.613 1.612 10.538 4.74 21.265 10.143 34.814 19.243 48.457-3.791 111.027-3.981 111.592-.19.564-.379 1.034-.474 1.599-2.939 15.431-7.868 24.652-13.366 24.652-.568 0-1.137-.094-1.801-.282-6.73-1.412-10.237-8.563-10.332-14.773-.379-80.259-80.857-107.263-81.71-107.546-3.602-1.129-7.584-.094-10.048 2.823-2.56 2.917-3.034 6.963-1.327 10.35.947 1.976 3.98 10.632 1.895 41.212-1.8 27.475-6.825 54.667-14.882 80.73C4.05 409.98 7.084 469.164 7.273 471.986c14.724 160.244 244.979 188.322 381.631 98.043 14.977-9.88 27.206-21.17 36.211-33.59 50.43-69.628 20.76-164.189-1.326-214.434ZM73.534 475.091c.284 5.175-3.697 9.598-8.911 9.88h-.569c-5.024 0-9.195-3.858-9.479-8.845-.853-13.737-.663-28.133.38-43.752.379-5.175 4.928-9.033 10.142-8.751 5.214.376 9.195 4.892 8.816 10.067-1.044 14.868-1.233 28.417-.38 41.401Zm4.643-83.364c-.568 4.798-4.645 8.28-9.384 8.28-.38 0-.758 0-1.232-.094-5.12-.659-8.816-5.27-8.247-10.444l4.55-36.32c.663-5.081 5.308-8.75 10.616-8.185 5.214.658 8.91 5.363 8.247 10.538l-4.55 36.225Zm281.481-263.001c-5.17-.795-8.716-5.591-7.919-10.723.592-3.823 4.017-23.394 13.311-33.235 3.578-3.794 9.567-3.992 13.4-.427a9.361 9.361 0 0 1 .43 13.3c-3.934 4.168-7.285 16.094-8.405 23.23-.8 5.077-5.571 8.64-10.817 7.855ZM14.085 175.594c-1.814-6.997-6.323-18.538-10.65-22.305a9.357 9.357 0 0 1-.88-13.277c3.444-3.914 9.428-4.314 13.377-.873 10.214 8.889 15.551 28.034 16.519 31.778 1.296 5.031-1.759 10.149-6.822 11.444-5.176 1.292-10.254-1.82-11.544-6.767Z" fill="#3D3D3D"/></svg>