<svg viewBox="0 0 15 20" fill="none" xmlns="http://www.w3.org/2000/svg"><g clip-path="url('#a')" fill="#FF6B09"><path d="M14.046 10.37a5.845 5.845 0 0 0-.745-1.239c-.862-1.133-1.125-3.66-1.128-3.685a.302.302 0 0 0-.201-.257.288.288 0 0 0-.31.087c-1.029 1.203-.596 3.061-.362 3.803.064.204.134.443.184.685.38 1.96-.354 2.849-.526 3.028-.167.048-.28.024-.386-.094-.362-.415-.482-1.776-.313-3.549.035-.36.027-.685-.023-.988-.357-2.179-1.668-3.576-2.002-4.066-.917-1.419-1.01-3.78-1.014-3.8a.298.298 0 0 0-.16-.261.281.281 0 0 0-.295.021c-1.531 1.088-1.4 3.71-1.187 5.173.05.34.146.685.313 1.121.593 1.56-.117 3.576-.123 3.594a.307.307 0 0 0-.014.052c-.091.497-.243.794-.412.794a.194.194 0 0 1-.056-.01c-.207-.045-.315-.275-.318-.475-.012-2.585-2.493-3.455-2.52-3.464a.283.283 0 0 0-.309.091.309.309 0 0 0-.04.333c.028.064.122.343.058 1.328-.056.884-.21 1.76-.46 2.6a13.22 13.22 0 0 0-.49 4.009c.454 5.16 7.552 6.065 11.764 3.157a4.34 4.34 0 0 0 1.116-1.082c1.555-2.242.64-5.287-.04-6.906ZM3.25 15.3a.298.298 0 0 1-.275.319h-.018a.297.297 0 0 1-.292-.285 11.53 11.53 0 0 1 .012-1.41.3.3 0 0 1 .312-.28.3.3 0 0 1 .272.323c-.032.48-.038.915-.011 1.334Zm.143-2.684a.295.295 0 0 1-.29.267c-.011 0-.023 0-.038-.003a.303.303 0 0 1-.254-.337l.14-1.17a.298.298 0 0 1 .328-.263c.16.021.274.173.254.34l-.14 1.166Zm8.677-8.47a.302.302 0 0 1-.244-.345c.018-.124.123-.754.41-1.07a.285.285 0 0 1 .413-.015.311.311 0 0 1 .013.429c-.12.134-.224.518-.259.748a.294.294 0 0 1-.333.253ZM1.417 5.655c-.056-.225-.195-.597-.328-.718a.31.31 0 0 1-.027-.428.284.284 0 0 1 .412-.028c.315.287.48.903.51 1.024a.304.304 0 0 1-.211.368.292.292 0 0 1-.356-.218Z"/></g><defs><clipPath id="a"><path fill="#fff" transform="translate(.952)" d="M0 0h14.025v20H0z"/></clipPath></defs></svg>