<svg width="15" height="20" fill="none" xmlns="http://www.w3.org/2000/svg"><path d="M14.004 10.37c-.18-.396-.43-.787-.796-1.239-.922-1.133-1.204-3.66-1.207-3.685a.307.307 0 0 0-.215-.257.322.322 0 0 0-.332.088c-1.1 1.203-.637 3.06-.387 3.803.069.203.144.442.197.685.406 1.96-.378 2.848-.563 3.027-.178.048-.3.024-.412-.094-.388-.415-.516-1.776-.335-3.549.038-.36.028-.684-.025-.987-.382-2.18-1.784-3.577-2.14-4.067C6.807 2.677 6.707.316 6.704.295a.296.296 0 0 0-.172-.26.318.318 0 0 0-.315.02C4.579 1.143 4.72 3.765 4.948 5.228c.053.34.156.685.334 1.121.635 1.561-.125 3.576-.13 3.594-.007.019-.013.034-.016.052-.097.497-.26.794-.441.794a.217.217 0 0 1-.06-.01c-.221-.045-.337-.275-.34-.475C4.282 7.719 1.629 6.849 1.6 6.84a.316.316 0 0 0-.331.091.293.293 0 0 0-.044.334c.031.063.131.342.063 1.327-.06.885-.225 1.76-.49 2.6A12.4 12.4 0 0 0 .272 15.2c.485 5.16 8.076 6.065 12.581 3.157.494-.318.897-.681 1.194-1.081 1.663-2.243.684-5.288-.044-6.906ZM2.457 15.3a.305.305 0 0 1-.293.32h-.019a.308.308 0 0 1-.313-.286c-.028-.442-.021-.906.013-1.409a.313.313 0 0 1 .334-.282.308.308 0 0 1 .291.325c-.034.478-.04.915-.013 1.333Zm.154-2.684a.308.308 0 0 1-.31.267c-.012 0-.025 0-.04-.003a.307.307 0 0 1-.272-.337l.15-1.17a.314.314 0 0 1 .35-.263.306.306 0 0 1 .272.34l-.15 1.166ZM11.89 4.146a.304.304 0 0 1-.26-.345c.02-.124.132-.754.438-1.07a.32.32 0 0 1 .442-.015.297.297 0 0 1 .014.429c-.13.134-.24.518-.277.748a.311.311 0 0 1-.356.253ZM.498 5.655c-.06-.225-.209-.597-.351-.718a.297.297 0 0 1-.03-.428.319.319 0 0 1 .442-.028c.336.287.512.903.544 1.024a.302.302 0 0 1-.225.368.314.314 0 0 1-.38-.218Z" fill="#FF6B09"/></svg>