<svg width="62" height="62" fill="none" xmlns="http://www.w3.org/2000/svg"><g clip-path="url('#clip0_1_2687')"><path d="M13.872 50.698h33.481c.166-3.818-.108-10.153-2.455-13.168l-.085-.108-5.13-2.576c.111-.375.166-.72.188-.972a1.785 1.785 0 0 0-.125-.848c-.846-2.025-2.637-3.09-3.622-3.545.3-.604.494-1.254.587-1.917a1.646 1.646 0 0 0 1.154-1.189l.598-2.432c.106-.43.04-.874-.188-1.253a1.64 1.64 0 0 0-.368-.418c1.689-3.834-1.139-7.45-1.293-7.64-3.062-3.311-6.93-2.692-7.135-2.655-5.583 1.168-7.737 5.447-6.52 10.465-.361.399-.512.955-.379 1.5l.602 2.436c.146.585.59 1.025 1.144 1.184a6.265 6.265 0 0 0 1.44 3.2v1.928c-8.01 4.102-2.934 1.485-9.354 4.733-.013.06-3.013 3.248-2.567 12.698l.027.577Zm32.318-1.212h-5.51v-2.314l3.644-8.343c1.826 3.03 1.893 8.816 1.866 10.657Zm-7.52-15.715c-.214 2.442-1.553 1.704-2.38 3.586-.65-.715-.846-1.573-.671-2.491.316-1.686-.713-2.186-.46-3.957l.04-.041v-.006c.021-.024.224-.266.283-.342 2.18.95 3.23 2.718 3.187 3.25Zm-11.696-1.92a6.206 6.206 0 0 0 6.968.093c.14 1.393.684 1.671.49 2.696-.035.19-.055.377-.067.562l-3.752 4.23-4.797-5.409 1.158-.605v-1.567Zm-1.509-5.177V20.21c.584-1.08 1.38-1.863 2.37-2.333 2.65 1.5 5.7 3.737 7.746 5.99-.002 2.868.008 2.875-.011 3.111l-.001.015c-.16 2.604-2.301 4.763-5.048 4.763-2.67 0-4.886-2.096-5.046-4.789a3.398 3.398 0 0 1-.01-.292Zm-.747 7.934 5.895 6.646 3.958-4.461c.09.26.217.507.362.744l-4.32 5.403-6.442-8.057.547-.275Zm12.07-8.909v-1.872l.45-.516c.025.948.127-.171-.45 2.388Zm-7.086-12.531c.24.015 3.457-.49 6 2.255.1.126 2.169 2.792 1.337 5.71-.284-1.299-.78-2.962-1.564-3.756l-.857.854c.774.784 1.282 3.171 1.476 4.409-3.55-3.716-8.13-6.067-8.193-6.107-.23.143-2.168.512-3.576 3.247l-.067.131v2.01l-.177.002c-.895-4.318.818-7.748 5.621-8.755Zm-5.749 10.001.305 1.235V25.7l-.506-2.05c-.075-.305.152-.42.201-.482Zm-.887 12.268 7.547 9.439 5.106-6.386c.555.497.822.567 2 1.173l-.397-1.348c-.1-.342.298-.89.54-1.142a3.652 3.652 0 0 0 1.321-1.222l4.166 2.091-3.877 8.876v2.568h-17.72v-2.569l-3.878-8.874 5.192-2.606Zm-6.165 3.394 3.645 8.34v2.315h-5.51c-.028-1.84.04-7.624 1.865-10.655Z" fill="#FF6B09"/></g><path d="M61 9.235V1H1v60h60v-8.235" stroke="#FF6B09" stroke-width="2"/><defs><clipPath id="clip0_1_2687"><path fill="#fff" transform="translate(14 11)" d="M0 0h33.191v40H0z"/></clipPath></defs></svg>