<svg width="102" height="104" fill="none" xmlns="http://www.w3.org/2000/svg"><g clip-path="url('#clip0_1_3422')"><path d="M25.846 75.638h40.178c.198-4.582-.13-12.184-2.947-15.802l-.102-.13-6.155-3.09c.133-.451.2-.864.226-1.168.03-.364-.02-.707-.15-1.017-1.016-2.43-3.165-3.708-4.347-4.253.36-.726.593-1.505.705-2.301a1.975 1.975 0 0 0 1.384-1.427l.718-2.919a1.975 1.975 0 0 0-.226-1.503 1.967 1.967 0 0 0-.441-.501c2.026-4.602-1.367-8.94-1.552-9.17-3.675-3.972-8.317-3.23-8.562-3.185-6.7 1.402-9.285 6.537-7.825 12.558a1.977 1.977 0 0 0-.454 1.8l.722 2.923c.175.702.71 1.23 1.374 1.421a7.52 7.52 0 0 0 1.728 3.84v2.314c-9.613 4.923-3.522 1.782-11.226 5.68-.015.072-3.615 3.898-3.08 15.237l.032.693Zm38.781-1.455h-6.612v-2.777l4.373-10.012c2.191 3.636 2.273 10.58 2.24 12.79Zm-9.024-18.859c-.255 2.932-1.863 2.046-2.855 4.304-.78-.858-1.015-1.887-.806-2.989.38-2.023-.855-2.623-.55-4.749l.046-.048v-.007c.026-.03.27-.32.34-.411 2.617 1.14 3.876 3.261 3.825 3.9ZM41.568 53.02a7.448 7.448 0 0 0 8.363.113c.167 1.67.82 2.005.589 3.235a5.392 5.392 0 0 0-.081.674l-4.504 5.075-5.756-6.49 1.39-.725V53.02Zm-1.81-6.21V39.05c.7-1.296 1.656-2.236 2.844-2.8 3.18 1.8 6.84 4.485 9.295 7.188-.002 3.441.01 3.45-.013 3.733l-.002.018c-.191 3.126-2.76 5.716-6.056 5.716-3.204 0-5.864-2.515-6.056-5.747a4.103 4.103 0 0 1-.012-.35Zm-.897 9.52 7.074 7.974 4.75-5.353c.108.313.26.608.435.893l-5.185 6.484-7.73-9.669.656-.33Zm14.485-10.691v-2.247l.54-.62c.03 1.138.152-.204-.54 2.867ZM44.843 30.6c.287.018 4.147-.587 7.198 2.707.12.15 2.604 3.35 1.606 6.85-.341-1.557-.936-3.553-1.877-4.505l-1.028 1.024c.928.94 1.539 3.805 1.77 5.29-4.26-4.458-9.756-7.28-9.831-7.327-.276.171-2.602.613-4.29 3.896l-.081.157v2.412l-.213.002c-1.074-5.182.982-9.298 6.746-10.506Zm-6.899 12.002.366 1.481v1.556l-.608-2.458c-.089-.367.183-.506.242-.579ZM36.88 57.324l9.056 11.327 6.128-7.664c.666.597.987.681 2.4 1.408l-.477-1.617c-.12-.41.358-1.069.647-1.371a4.38 4.38 0 0 0 1.587-1.466l4.999 2.51-4.652 10.65v3.082H35.303v-3.082L30.65 60.45l6.23-3.127Zm-7.398 4.073 4.374 10.01v2.776h-6.612c-.034-2.209.048-9.148 2.238-12.786Z" fill="#FF6B09"/></g><path d="M100.777 15V1H1v102h99.777V89" stroke="#FF6B09" stroke-width="2"/><defs><clipPath id="clip0_1_3422"><path fill="#fff" transform="translate(25.944 28)" d="M0 0h39.741v48H0z"/></clipPath></defs></svg>