<svg width="102" height="104" fill="none" xmlns="http://www.w3.org/2000/svg"><g clip-path="url('#clip0_1_3429')" fill="#FF6B09"><path d="M66.32 27.812H43.193a2.733 2.733 0 0 0-2.73 2.73v9.573l-17.181 7.212a.559.559 0 0 0-.072.996l2.191 1.311V63.61a2.525 2.525 0 0 0-1.961 2.458v1.347c0 .31.25.56.56.56h3.923a.56.56 0 0 0 .56-.56v-1.347c0-1.198-.841-2.2-1.963-2.457V50.304l1.733 1.037c-.053.4-.007-.696-.025 6.506 0 2.368 6.064 3.636 12.235 3.709v10.906a2.727 2.727 0 0 0 2.729 2.726h23.127a2.73 2.73 0 0 0 2.727-2.728c0 .075-.003-2.31 0-41.917 0-1.485-1.228-2.731-2.726-2.731ZM27.364 66.067v.788h-2.805v-.788c0-.775.628-1.406 1.399-1.406.775 0 1.406.631 1.406 1.406Zm38.956 7.999H43.193c-.555 0-1.045-.28-1.335-.707a1.599 1.599 0 0 1-.275-.899v-3.78h26.341v3.782c0 .876-.73 1.604-1.604 1.604Zm1.604-6.505H41.582v-6.002c3.013-.034 12.242-.698 12.242-3.712-.003-4.525.008-6.36-.014-6.515l5.024-3.01a.56.56 0 0 0-.071-.995l-17.181-7.212v-4.673h26.342v32.119ZM41.022 54.132c-3.103 0-9.079.401-11.675 2.096.017-5.185-.18-4.847.459-5.287 1.612-1.187 6.225-2.016 11.216-2.016 2.178 0 11.683.598 11.683 2.61v4.694c-2.62-1.711-8.566-2.097-11.683-2.097Zm.561-23.59a1.61 1.61 0 0 1 1.609-1.608h23.127c.888 0 1.605.732 1.605 1.608v3.781H41.583v-3.78Zm-.56 10.552 16.288 6.837-4.036 2.415c-2.146-2.128-9.244-2.54-12.253-2.54-3.012 0-10.11.413-12.252 2.54l-4.037-2.415 16.29-6.837ZM29.346 57.847c0-.906 4.01-2.596 11.675-2.596 7.67 0 11.683 1.69 11.683 2.596 0 .906-4.012 2.597-11.683 2.597-7.665 0-11.675-1.69-11.675-2.597Z"/><path d="M54.755 69.523c-1.02 0-1.85.83-1.85 1.85 0 1.022.83 1.852 1.85 1.852s1.85-.83 1.85-1.851c0-1.02-.83-1.85-1.85-1.85Zm0 2.583a.733.733 0 0 1 0-1.463.732.732 0 0 1 0 1.463ZM56.89 31.07H52.62v1.118h4.269V31.07Z"/></g><path d="M101 15V1H1v102h100V89" stroke="#FF6B09" stroke-width="2"/><defs><clipPath id="clip0_1_3429"><path fill="#fff" transform="translate(22 28)" d="M0 0h48v47H0z"/></clipPath></defs></svg>