<svg aria-hidden="true" style="width:0;height:0;position:absolute;overflow:hidden" xmlns="http://www.w3.org/2000/svg"><defs><symbol id="icon-logo" viewBox="0 0 128 32"><path d="M18.123 9.163V28.55h-5.389v-7.562H5.387v7.562H0V9.163h5.387v7.285h7.349V9.163h5.389zM37.84 21.072c0 .038-.026.472-.08 1.302H27.04c.216.776.634 1.376 1.25 1.8.635.406 1.424.61 2.368.61.707 0 1.315-.101 1.824-.304.525-.203 1.051-.536 1.578-.998l2.72 2.88c-1.43 1.627-3.526 2.438-6.283 2.438-1.723 0-3.238-.333-4.544-.997-1.307-.666-2.322-1.589-3.048-2.77-.707-1.182-1.061-2.52-1.061-4.016 0-1.477.344-2.797 1.034-3.96a7.502 7.502 0 0 1 2.872-2.752l.04-.02c1.232-.664 2.621-.997 4.163-.997 1.469 0 2.803.314 4 .942a6.768 6.768 0 0 1 2.83 2.686c.707 1.163 1.061 2.547 1.061 4.154zm-7.862-4.043c-.798 0-1.47.23-2.014.693-.526.461-.861 1.088-1.006 1.883H33c-.146-.794-.49-1.422-1.035-1.883-.525-.462-1.187-.693-1.986-.693zM41.312 8h5.171v20.55h-5.17V8zm9.619 0h5.171v20.55h-5.171V8z"/><path fill="#ff6b09" style="fill:var(--color2,#ff6b09)" d="M83.274 16.592c-.272-.635-.645-1.259-1.192-1.982-1.379-1.813-1.8-5.856-1.805-5.896a.485.485 0 0 0-.318-.41l-.003-.001a.462.462 0 0 0-.496.139l-.001.001c-1.646 1.925-.954 4.898-.579 6.085.102.326.214.709.294 1.096.608 3.136-.566 4.558-.842 4.845-.267.077-.448.038-.618-.15-.579-.664-.771-2.842-.501-5.678a6.052 6.052 0 0 0-.037-1.581c-.571-3.486-2.669-5.722-3.203-6.506-1.467-2.27-1.616-6.048-1.622-6.08a.476.476 0 0 0-.253-.416l-.003-.001a.448.448 0 0 0-.473.035l.001-.001c-2.451 1.741-2.24 5.936-1.899 8.277.08.544.234 1.096.501 1.794.949 2.496-.187 5.722-.197 5.75s-.018.053-.022.083c-.146.795-.389 1.27-.659 1.27a.312.312 0 0 1-.092-.017l.002.001c-.331-.072-.506-.44-.509-.76-.019-4.136-3.989-5.528-4.032-5.542s-.091-.023-.142-.023a.45.45 0 0 0-.352.168l-.001.001a.49.49 0 0 0-.063.536l-.001-.003c.045.102.195.549.093 2.125a18.8 18.8 0 0 1-.736 4.16c-.504 1.721-.795 3.699-.795 5.744 0 .236.004.471.011.705l-.001-.034c.726 8.256 12.083 9.704 18.822 5.051a7.008 7.008 0 0 0 1.772-1.711l.014-.02c2.488-3.587 1.024-8.459-.064-11.05zM66 24.48a.476.476 0 0 1-.437.51h-.031a.475.475 0 0 1-.467-.455v-.001c-.042-.707-.032-1.45.019-2.256a.48.48 0 0 1 .479-.448l.023.001h-.001a.48.48 0 0 1 .434.517A16.476 16.476 0 0 0 66 24.482zm.23-4.294a.472.472 0 0 1-.464.427c-.018 0-.037 0-.061-.005a.485.485 0 0 1-.406-.542v.002l.224-1.872a.478.478 0 0 1 .527-.421h-.002a.484.484 0 0 1 .406.544l-.224 1.866zM80.112 6.634a.485.485 0 0 1-.39-.554v.003c.029-.198.197-1.206.656-1.712a.454.454 0 0 1 .661-.024.498.498 0 0 1 .02.687c-.192.214-.358.829-.414 1.197a.47.47 0 0 1-.535.404h.003zM63.067 9.048c-.09-.36-.312-.955-.525-1.149a.494.494 0 0 1-.043-.686l-.001.001a.456.456 0 0 1 .66-.045c.504.459.768 1.445.816 1.638a.487.487 0 0 1-.334.588l-.003.001a.469.469 0 0 1-.569-.346l-.001-.003z"/><path d="M106.17 23.003V27.2H91.133V8h14.688v4.197h-9.443v3.237h8.32v4.059h-8.32v3.51h9.792zM128 8v19.2h-4.362l-8.267-10.23V27.2h-5.192V8h4.362l8.269 10.23V8H128z"/></symbol><symbol id="icon-fire" viewBox="0 0 23 32"><path d="M21.909 16.593c-.284-.635-.675-1.261-1.247-1.983-1.442-1.813-1.882-5.857-1.887-5.896a.488.488 0 0 0-.337-.412.495.495 0 0 0-.518.141c-1.721 1.925-.997 4.897-.606 6.085.108.325.225.708.308 1.096.636 3.137-.592 4.558-.88 4.844-.279.078-.469.039-.645-.15-.606-.664-.807-2.841-.523-5.678a5.797 5.797 0 0 0-.039-1.581c-.598-3.486-2.791-5.722-3.349-6.507C10.651 4.283 10.494.506 10.49.472a.487.487 0 0 0-.763-.383C7.165 1.83 7.385 6.024 7.742 8.365c.083.543.244 1.096.523 1.794.992 2.497-.196 5.721-.205 5.75s-.02.053-.024.082c-.152.795-.406 1.27-.689 1.27a.327.327 0 0 1-.093-.015c-.347-.073-.528-.441-.533-.761-.02-4.136-4.17-5.527-4.214-5.542a.485.485 0 0 0-.518.146.476.476 0 0 0-.068.533c.049.102.205.548.098 2.124a18.09 18.09 0 0 1-.768 4.16C.263 21.125.42 24.175.43 24.321c.759 8.257 12.635 9.704 19.683 5.052.772-.509 1.403-1.091 1.868-1.731 2.601-3.588 1.071-8.461-.068-11.05zM3.845 24.481a.484.484 0 0 1-.46.509h-.029a.487.487 0 0 1-.489-.456c-.044-.708-.034-1.45.02-2.255a.49.49 0 0 1 .978.068 15.622 15.622 0 0 0-.02 2.133zm.239-4.296a.485.485 0 0 1-.484.427c-.02 0-.039 0-.064-.005a.488.488 0 0 1-.425-.538l.235-1.872a.494.494 0 0 1 .548-.422c.269.034.46.276.425.543l-.235 1.867zM18.602 6.633a.484.484 0 0 1-.408-.553c.03-.197.207-1.205.686-1.713.185-.196.493-.206.691-.022s.207.49.022.685c-.203.215-.376.829-.433 1.197a.489.489 0 0 1-.558.405zM.778 9.048C.684 8.687.452 8.093.229 7.899c-.203-.177-.223-.483-.045-.684s.486-.222.69-.045c.527.458.802 1.445.852 1.638a.49.49 0 0 1-.947.241z"/></symbol><symbol id="icon-menu" viewBox="0 0 32 32"><path d="M6.4 11.734V9.6h19.2v2.134H6.4zm0 5.332h19.2v-2.133H6.4v2.133zm0 5.334h19.2v-2.134H6.4V22.4z"/></symbol><symbol id="icon-close" viewBox="0 0 32 32"><path d="m26.667 7.303-1.97-1.97-7.808 7.808-7.808-7.808-1.97 1.97 7.808 7.808-7.808 7.808 1.97 1.97 7.808-7.808 7.808 7.808 1.97-1.97-7.808-7.808 7.808-7.808z"/></symbol><symbol id="icon-post" viewBox="0 0 32 32"><path d="M5.315 9.274 13.05 16l-7.737 6.728A1.008 1.008 0 0 1 5 21.993V10.007c0-.289.121-.549.315-.733zm22.372-.002c.194.184.313.445.313.735v11.986c0 .289-.121.549-.315.733L19.95 16l7.737-6.728zm-8.485 7.379L26.5 23h-20l7.298-6.349L16.5 19l2.702-2.349zM6.004 8A2 2 0 0 0 4 9.994v12.012C4 23.107 4.89 24 6.004 24h20.993a2 2 0 0 0 2.004-1.994V9.994c0-1.101-.89-1.994-2.004-1.994H6.004zM16.5 17.7 6.5 9h20l-10 8.7z"/></symbol><symbol id="icon-lock" viewBox="0 0 20 20"><path d="M15.8 8H14V5.6C14 2.703 12.665 1 10 1S6 2.703 6 5.6V8H4c-.553 0-1 .646-1 1.199V17c0 .549.428 1.139.951 1.307l1.197.387A7.731 7.731 0 0 0 7.1 19h5.8a7.68 7.68 0 0 0 1.951-.307l1.196-.387c.524-.167.953-.757.953-1.306V9.199C17 8.646 16.352 8 15.8 8zM12 8H8V5.199C8 3.754 8.797 3 10 3s2 .754 2 2.199V8z"/></symbol><symbol id="icon-phone" viewBox="0 0 32 32"><path d="M4.657.003a1.969 1.969 0 0 0-1.392.678L.67 3.65c.004-.009-.01-.008-.084.101a.656.656 0 0 0-.09.184C-.56 7.437.148 11.289 1.872 14.953S6.347 22.123 9.505 25c3.158 2.877 6.721 5.128 10.119 6.244s6.692 1.102 9.133-.742a.536.536 0 0 0 .075-.068c.064-.067.066-.075.056-.065l.01-.013L31.48 27.4c.742-.849.682-2.184-.134-2.956l-6.126-5.799a1.965 1.965 0 0 0-2.84.138l-2.772 3.173c-2.25-.678-4.173-1.828-6.023-3.58s-3.132-3.637-3.993-5.905l2.771-3.173c.742-.849.683-2.184-.133-2.956L6.104.542A1.962 1.962 0 0 0 4.656.003h-.001zm.058 1.301c.19-.009.383.06.541.209l6.126 5.8a.788.788 0 0 1 .05 1.104l-3.063 3.504a.667.667 0 0 0-.124.665c.93 2.641 2.429 4.807 4.493 6.761s4.275 3.304 6.889 4.018a.612.612 0 0 0 .626-.193l3.064-3.505a.716.716 0 0 1 1.06-.051l6.127 5.8a.786.786 0 0 1 .049 1.103l-2.561 2.93c-2.003 1.497-4.826 1.581-7.986.542-3.173-1.043-6.617-3.202-9.666-5.98s-5.702-6.169-7.332-9.633C1.394 10.949.809 7.483 1.696 4.428l2.502-2.862a.736.736 0 0 1 .52-.261z"/></symbol><symbol id="icon-check" viewBox="0 0 40 32"><path d="M35.296 1.514a30.274 30.274 0 0 0-4.369 2.379c-2.797 1.797-5.355 3.936-7.754 6.218-2.398 2.287-4.63 4.735-6.741 7.28-.528.636-2.892 3.47-2.892 3.47L3.71 6.481-.001 16.523 13.292 32c1.291-2.551 2.533-5.07 3.752-7.258.303-.556.62-1.08.923-1.612 0 0 1.56-2.677 1.97-3.352 1.64-2.697 3.414-5.325 5.366-7.821 1.955-2.491 4.08-4.87 6.489-6.961a29.016 29.016 0 0 1 3.842-2.872c1.364-.848 2.814-1.591 4.365-2.125-1.613.31-3.187.848-4.704 1.514z"/></symbol><symbol id="icon-advantages-1" viewBox="0 0 31 32"><path d="M7.953 23.273h12.362c.061-1.41-.04-3.749-.907-4.862l-.031-.04-1.894-.951c.041-.139.061-.266.07-.359a.666.666 0 0 0-.046-.313c-.313-.748-.974-1.141-1.337-1.309.111-.223.182-.463.217-.708a.609.609 0 0 0 .426-.439l.221-.898a.607.607 0 0 0-.206-.617c.623-1.416-.421-2.751-.478-2.821-1.131-1.222-2.559-.994-2.635-.98-2.061.432-2.857 2.011-2.408 3.864a.61.61 0 0 0-.14.554l.222.899a.605.605 0 0 0 .423.437c.063.449.253.854.532 1.181v.712c-2.958 1.515-1.084.548-3.454 1.748-.005.022-1.112 1.2-.948 4.689l.01.213zm11.932-.447H17.85v-.855l1.346-3.081c.674 1.119.699 3.255.689 3.935zm-2.776-5.803c-.079.902-.573.629-.878 1.324a1.025 1.025 0 0 1-.248-.92c.117-.622-.263-.807-.169-1.461l.014-.015v-.002c.008-.009.083-.098.105-.126.805.351 1.193 1.003 1.177 1.2zm-4.319-.709a2.294 2.294 0 0 0 2.573.034c.052.514.253.617.181.995-.013.07-.021.139-.025.207l-1.386 1.562-1.771-1.997.428-.223v-.579zm-.557-1.911v-2.387c.216-.399.51-.688.875-.861.979.554 2.105 1.38 2.86 2.211-.001 1.059.003 1.062-.004 1.149l-.001.005a1.87 1.87 0 0 1-1.864 1.759 1.873 1.873 0 0 1-1.867-1.876zm-.276 2.929 2.177 2.454 1.461-1.647c.033.096.08.187.134.275l-1.595 1.995-2.379-2.975.202-.101zm4.457-3.289v-.691l.166-.191c.009.35.047-.063-.166.882zm-2.616-4.627c.088.005 1.276-.181 2.215.833.037.046.801 1.031.494 2.108-.105-.479-.288-1.093-.578-1.387l-.316.315c.286.289.474 1.171.545 1.628-1.311-1.372-3.002-2.24-3.025-2.255-.085.053-.8.189-1.32 1.199l-.025.048v.742l-.066.001c-.33-1.594.302-2.861 2.076-3.233zm-2.123 3.693.112.456v.479l-.187-.757c-.027-.113.056-.156.074-.178zm-.328 4.529 2.787 3.485 1.885-2.358c.205.184.304.21.739.433l-.147-.497c-.037-.126.11-.329.199-.422.199-.108.364-.261.488-.451l1.538.772-1.431 3.277v.948h-6.543v-.949L9.43 18.599l1.917-.962zm-2.276 1.253 1.346 3.08v.855H8.382c-.01-.68.015-2.815.689-3.934z"/><path stroke-width=".615" d="M31.008 4.615V.307H.307v31.385h30.701v-4.308"/></symbol><symbol id="icon-advantages-2" viewBox="0 0 31 32"><path d="M20.406 8.558H13.29a.841.841 0 0 0-.84.84v2.946l-5.287 2.219c-.06.025-.101.082-.105.146s.027.127.083.16l.674.403v4.3a.776.776 0 0 0-.603.756v.414c0 .095.077.172.172.172h1.207a.172.172 0 0 0 .172-.172v-.414a.777.777 0 0 0-.604-.756v-4.094l.533.319c-.016.123-.002-.214-.008 2.002 0 .729 1.866 1.119 3.765 1.141v3.356a.84.84 0 0 0 .84.838h7.116a.84.84 0 0 0 .839-.839V9.397a.846.846 0 0 0-.839-.84zM8.42 20.328v.242h-.863v-.242a.432.432 0 1 1 .863 0zm11.986 2.462H13.29a.494.494 0 0 1-.496-.494v-1.163h8.105v1.164c0 .27-.225.494-.494.494zm.494-2.002h-8.105v-1.847c.927-.011 3.767-.215 3.767-1.142-.001-1.392.002-1.957-.004-2.005l1.546-.926a.171.171 0 0 0-.022-.306l-5.286-2.219v-1.438h8.105v9.883zm-8.278-4.132c-.955 0-2.794.123-3.592.645.005-1.595-.055-1.491.141-1.627.496-.365 1.915-.62 3.451-.62.67 0 3.595.184 3.595.803v1.444c-.806-.526-2.636-.645-3.595-.645zm.173-7.258c0-.273.222-.495.495-.495h7.116c.273 0 .494.225.494.495v1.163h-8.105V9.398zm-.173 3.246 5.012 2.104-1.242.743c-.66-.655-2.844-.782-3.77-.782-.927 0-3.111.127-3.77.782l-1.242-.743 5.012-2.104zM9.03 17.799c0-.279 1.234-.799 3.592-.799 2.36 0 3.595.52 3.595.799s-1.235.799-3.595.799c-2.359 0-3.592-.52-3.592-.799z"/><path d="M16.848 21.392a.57.57 0 1 0 0 1.139.57.57 0 0 0 0-1.139zm0 .794a.225.225 0 1 1 0-.45.225.225 0 0 1 0 .45zm.657-12.626h-1.313v.344h1.313V9.56z"/><path stroke-width=".615" d="M31.077 4.615V.307H.308v31.385h30.769v-4.308"/></symbol><symbol id="icon-advantages-3" viewBox="0 0 31 32"><path d="M7.942 14.958c0 .165-.25.165-.25 0a6.343 6.343 0 0 1 12.686.001c0 .165-.249.165-.249 0 0-2.367-3.89-2.369-3.89 0 0 .165-.256.165-.256 0 0-2.361-3.896-2.361-3.896 0 0 .165-.256.165-.256 0 0-2.357-3.888-2.373-3.888 0zm3.911-.919c.067-1.363.281-2.584.593-3.517.249-.741.563-1.304.919-1.62a6.097 6.097 0 0 0-5.323 4.949c.921-1.328 3.047-1.222 3.811.189zm4.11-.062c-.069-1.31-.277-2.482-.576-3.376-.773-2.313-1.931-2.313-2.704 0-.299.894-.506 2.066-.576 3.376.831-1.412 3.026-1.412 3.857 0zm4.064-.127a6.094 6.094 0 0 0-5.323-4.949c.358.316.671.879.919 1.62.311.933.526 2.155.593 3.517.768-1.418 2.9-1.502 3.811-.189zm-6.825 4.01v-1.288c-.232.154-.415.392-.415.683 0 .283.186.47.415.605zm.25.4c-.445-.204-.913-.442-.913-1.005 0-.581.442-.872.913-1.089v2.094zm1.415 1.543v1.303c.235-.156.419-.395.419-.686 0-.286-.189-.479-.419-.617zm-.248-.401c.446.207.918.452.918 1.018 0 .582-.445.873-.918 1.089v-2.107z"/><path d="M14.867 15.106c1.024.237 2.077 1.003 2.077 2.149 0 .981-1.658.945-1.658 0 0-.292-.184-.532-.419-.686v1.833c.948.31 2.08.865 2.08 2.018 0 1.147-1.053 1.912-2.08 2.147-.005 1.092-1.662 1.09-1.665-.001-.584-.135-1.092-.407-1.458-.768-.385-.38-.612-.858-.612-1.378 0-.966 1.656-.966 1.656 0 0 .289.183.527.415.681V19.27c-.94-.304-2.078-.876-2.078-2.018 0-1.147 1.053-1.912 2.078-2.147.005-1.092 1.662-1.09 1.665.002zm-1.415.003v.199c-.975.193-2.08.818-2.08 1.944 0 1.083 1.213 1.568 2.08 1.836v2.42c-.469-.214-.913-.503-.913-1.087 0-.638-1.159-.638-1.159 0 0 .451.201.867.539 1.199.43.425.951.627 1.533.743v.201c0 .768 1.166.768 1.166 0v-.199c.978-.195 2.078-.819 2.078-1.944 0-1.093-1.21-1.563-2.078-1.837v-2.418c.47.214.918.503.918 1.09 0 .621 1.157.647 1.157 0 0-1.125-1.099-1.75-2.075-1.945v-.201c0-.768-1.166-.768-1.166 0z"/><path stroke-width=".615" d="M31.077 4.615V.307H.308v31.385h30.769v-4.308"/></symbol><symbol id="icon-how-1" viewBox="0 0 32 32"><path d="m29.071 6.087-.001-.002a.242.242 0 0 0-.053-.079l-4.231-4.188a.193.193 0 0 0-.036-.028l-.008-.005a.324.324 0 0 0-.032-.017l-.009-.004a.26.26 0 0 0-.087-.018H5.97a.249.249 0 0 0-.25.248V27.54a.28.28 0 0 0 .005.049l.006.02.008.026c.003.008.008.015.012.022l.011.02c.009.012.018.024.029.035l.002.003 1.906 1.886a.252.252 0 0 0 .354 0l1.729-1.711 1.729 1.711a.249.249 0 0 0 .354 0l1.729-1.711 1.729 1.711a.252.252 0 0 0 .354 0l1.729-1.711 1.729 1.711a.25.25 0 0 0 .353 0l1.73-1.711 1.729 1.711a.249.249 0 0 0 .354 0l1.729-1.711 1.73 1.711a.25.25 0 0 0 .353 0l1.906-1.886.01-.012c.007-.008.015-.016.021-.025s.01-.018.014-.026l.008-.016c.005-.011.008-.023.011-.034l.004-.012a.284.284 0 0 0 .005-.051V6.183a.26.26 0 0 0-.02-.095zm-4.212-3.496 3.377 3.343h-3.377V2.591zm3.731 24.845-1.655 1.639-1.73-1.711a.252.252 0 0 0-.353 0l-1.729 1.711-1.729-1.711a.254.254 0 0 0-.354 0l-1.73 1.711-1.728-1.71v-.001a.252.252 0 0 0-.354 0L15.5 29.075l-1.729-1.711a.254.254 0 0 0-.354 0l-1.729 1.711-1.729-1.711a.254.254 0 0 0-.354 0l-1.729 1.711-1.655-1.639V2.24h18.138v3.941c0 .137.112.248.25.248h3.98v21.007z"/><path d="M8.085 4.583h8.19c.138 0 .25-.111.25-.248s-.112-.248-.25-.248h-8.19c-.138 0-.25.111-.25.248s.112.248.25.248zm0 1.531h13.134c.138 0 .25-.111.25-.248s-.112-.248-.25-.248H8.085c-.138 0-.25.111-.25.248s.112.248.25.248zm-.25 1.374v8.017c0 .137.112.248.25.248h18.639c.138 0 .25-.111.25-.248V7.488a.249.249 0 0 0-.25-.248H8.085a.249.249 0 0 0-.25.248zm5.528.248h13.111v2.131H13.363V7.736zm0 2.626h13.111v2.13H13.363v-2.13zm0 2.625h13.111v2.271H13.363v-2.271zM8.336 7.736h4.527v2.131H8.336V7.736zm0 2.626h4.527v2.13H8.336v-2.13zm0 2.625h4.527v2.271H8.336v-2.271zm18.389 3.88H8.086a.249.249 0 0 0-.25.248v8.017c0 .137.112.247.25.247s.25-.111.25-.247v-2.518h4.527v2.518c0 .137.112.247.25.247s.25-.111.25-.247v-2.518h13.111v2.518c0 .137.112.247.25.247s.25-.111.25-.247v-8.017a.248.248 0 0 0-.249-.248zm-13.862 5.251H8.336v-2.13h4.527v2.13zm0-2.625H8.336v-2.13h4.527v2.13zm13.611 2.625H13.363v-2.13h13.111v2.13zm0-2.625H13.363v-2.13h13.111v2.13zM4.535 1.745a.249.249 0 0 0-.25.248v25.546c0 .136.112.247.25.247s.25-.111.25-.247V1.993a.249.249 0 0 0-.25-.248zm-1.376 0a.249.249 0 0 0-.25.248v25.546c0 .136.112.247.25.247s.25-.111.25-.247V1.993a.249.249 0 0 0-.25-.248z"/></symbol><symbol id="icon-how-2" viewBox="0 0 32 32"><path d="M28.09 2.327H14.666c-.874 0-1.585.707-1.585 1.576v5.526l-9.973 4.162a.323.323 0 0 0-.041.575l1.272.757v8.066a1.46 1.46 0 0 0-1.138 1.419v.778c0 .178.145.323.325.323h2.277a.325.325 0 0 0 .325-.323v-.778c0-.692-.488-1.27-1.139-1.418v-7.681l1.006.599c-.031.231-.004-.402-.014 3.755 0 1.367 3.52 2.099 7.102 2.141v6.295c0 .325.1.628.271.879.285.419.767.695 1.313.695h13.424a1.58 1.58 0 0 0 1.583-1.574c0 .043-.002-1.333 0-24.195a1.59 1.59 0 0 0-1.582-1.576zM5.478 24.408v.455H3.85v-.455a.813.813 0 0 1 1.628 0zm22.612 4.617H14.666a.937.937 0 0 1-.775-.408.918.918 0 0 1-.16-.519v-2.182h15.29v2.183a.937.937 0 0 1-.931.926zm.931-3.755H13.73v-3.464c1.749-.02 7.106-.403 7.106-2.143-.002-2.612.005-3.671-.008-3.76l2.916-1.737a.323.323 0 0 0-.041-.575L13.73 9.429V6.732h15.291v18.539zm-15.615-7.751c-1.801 0-5.27.231-6.777 1.21.01-2.993-.104-2.798.266-3.052.936-.685 3.613-1.164 6.511-1.164 1.264 0 6.781.345 6.781 1.507v2.709c-1.521-.988-4.972-1.21-6.781-1.21zm.325-13.616c0-.512.419-.929.934-.929h13.424c.515 0 .932.422.932.928v2.182h-15.29V3.902zm-.325 6.091 9.455 3.946-2.343 1.394c-1.246-1.228-5.366-1.466-7.112-1.466-1.749 0-5.869.239-7.112 1.467l-2.343-1.394 9.455-3.946zm-6.777 9.67c0-.523 2.328-1.498 6.777-1.498 4.452 0 6.781.976 6.781 1.498s-2.329 1.499-6.781 1.499c-4.449 0-6.777-.976-6.777-1.499z"/><path d="M21.377 26.403c-.592 0-1.074.479-1.074 1.068s.482 1.069 1.074 1.069c.592 0 1.074-.479 1.074-1.069s-.482-1.068-1.074-1.068zm0 1.491c-.234 0-.425-.19-.425-.423s.191-.422.425-.422c.234 0 .425.189.425.422s-.191.423-.425.423zm1.239-23.687h-2.478v.646h2.478v-.646z"/></symbol><symbol id="icon-how-3" viewBox="0 0 32 32"><path d="M14.717 9.194H6.274v.636h8.443v-.636zm0 2.372H7.538v.636h7.179v-.636zm0 2.373H6.274v.636h8.443v-.636zm0 2.372H7.538v.636h7.179v-.636zm0 2.372H6.274v.636h8.443v-.636zm0 2.372H7.538v.636h7.179v-.636zM26.308 9.194h-8.443v.636h8.443v-.636zm-1.265 2.372h-7.179v.636h7.179v-.636zm1.265 2.373h-8.443v.636h8.443v-.636zm-1.265 2.372h-7.179v.636h7.179v-.636zm1.265 2.372h-8.443v.636h8.443v-.636zm-1.265 2.372h-7.179v.636h7.179v-.636z"/><path d="M29.357 8.47h-1.159V6.718a.317.317 0 0 0-.316-.318h-9.449c-.922 0-1.721.502-2.141 1.253A2.442 2.442 0 0 0 14.151 6.4H4.702a.317.317 0 0 0-.316.318V8.47H3.227a.317.317 0 0 0-.316.318v17.076c0 .176.142.318.316.318h26.131a.317.317 0 0 0 .316-.318V8.788a.317.317 0 0 0-.316-.318zM18.432 7.036h9.133v17.038h-9.808a1.86 1.86 0 0 0-1.151.424V8.869a1.82 1.82 0 0 1 1.825-1.832zm-13.416 0h9.133c.988 0 1.788.774 1.821 1.762 0 .014.002.057.004.07v15.628a1.844 1.844 0 0 0-1.147-.423H5.015V7.035zm-1.475 2.07h.843v15.286c0 .176.142.318.316.318h10.128c.482 0 .948.318 1.097.835H3.541V9.106zm25.5 16.44H16.658c.15-.52.611-.835 1.101-.835h10.124a.317.317 0 0 0 .316-.318V9.107h.843v16.439z"/></symbol><symbol id="icon-how-4" viewBox="0 0 32 32"><path d="M4.055 13.287v2.471c0 .133.06.258.164.34a9.574 9.574 0 0 0 5.924 2.061 9.66 9.66 0 0 0 1.912-.195c1.338.596 2.763.901 4.237.901 1.479 0 2.904-.305 4.237-.901 2.678.545 5.532-.04 7.835-1.866a.433.433 0 0 0 .164-.34v-2.471a1.05 1.05 0 0 0-.498-.896l-3.351-1.899c.733-.937 1.279-2.271 1.374-3.415.278-1.969-1.315-4.055-3.609-4.055-.965 0-1.881.4-2.554 1.071-.023.023-.05.043-.072.067-.021.022-.038.047-.058.07l-.038.046c-.656-1.204-1.916-1.948-3.4-1.948-.144 0-.286.01-.426.024-.009-.001-.016-.005-.024-.005-.08 0-.248.021-.339.047-.013.004-.023.013-.036.018a3.884 3.884 0 0 0-2.611 1.882 3.608 3.608 0 0 0-2.754-1.272c-3.386 0-4.888 4.025-2.216 7.489l-3.382 1.891c-.3.191-.479.522-.479.885zm16.465 3.726c-.073.036-.145.074-.218.107l-.002.001a9.48 9.48 0 0 1-4.009.878 9.534 9.534 0 0 1-5.783-1.944V13.55c0-.085.041-.161.089-.193l3.935-2.203c.49.419 1.115.726 1.763.726.624 0 1.299-.312 1.778-.736l3.888 2.199a.242.242 0 0 1 .113.207v2.504a9.512 9.512 0 0 1-1.554.958zm7.068-3.88c.051.032.08.088.08.154v2.258a8.613 8.613 0 0 1-5.837 1.728c.32-.201.668-.451.938-.663a.432.432 0 0 0 .164-.341v-2.718c0-.38-.189-.729-.529-.948l-2.065-1.169.502-.28c.609.5 1.132.649 1.602.649.574 0 1.178-.284 1.627-.662l3.518 1.993zm-5.144-9.245a2.79 2.79 0 0 1 2.618 1.87 3.195 3.195 0 0 1-1.938-.997.43.43 0 0 0-.683.073 3.193 3.193 0 0 1-2.207 1.536v-.003a4.378 4.378 0 0 0-.028-.57l-.006-.058a5.099 5.099 0 0 0-.105-.531c.488-.787 1.394-1.32 2.351-1.32zm-2.305 3.365a4.017 4.017 0 0 0 2.742-1.538 4.043 4.043 0 0 0 2.341.922c-.006 1.564-1.275 4.3-2.778 4.3-1.159 0-2.148-1.669-2.517-2.826.094-.298.162-.584.213-.858zm.087 3.254-.768.428-.775-.439c.287-.361.551-.779.777-1.233.217.459.477.882.766 1.244zm-1.158-2.538c-.414 1.245-1.477 3.046-2.772 3.046-1.51 0-2.795-2.5-3.04-4.098.065-.016 2.105.11 3.509-1.746.712.6 1.674.998 2.609 1.037.011.564-.125 1.227-.305 1.761zm-2.747-4.776c2.408 0 2.867 2.088 2.905 2.131a3.569 3.569 0 0 1-2.221-1.113.427.427 0 0 0-.683.075 3.534 3.534 0 0 1-3.103 1.764c.118-1.59 1.383-2.857 3.102-2.857zm-3.196 6.062c.223.449.488.878.791 1.255l-.759.425-.786-.445a6.77 6.77 0 0 0 .753-1.235zm-2.994-5.367c.974 0 1.867.498 2.365 1.321-.025.087-.092.435-.101.478a3.179 3.179 0 0 1-1.578-.927.427.427 0 0 0-.683.076A3.212 3.212 0 0 1 7.381 6.42c.137-1.42 1.315-2.531 2.75-2.531zM7.419 7.282a4.068 4.068 0 0 0 3.156-1.567c.516.428 1.129.71 1.781.839.025.502.155 1.111.303 1.561-.237.733-.692 1.606-1.257 2.187l-.012.009c-.353.375-.856.627-1.251.627-1.381 0-2.461-2.189-2.721-3.655zm-2.505 6.005c0-.066.029-.121.058-.141l3.566-1.993c.214.179.263.2.306.232.42.281.804.421 1.329.421.559 0 1.068-.239 1.516-.606.025-.02.052-.039.076-.059l.509.288-2.12 1.188a1.11 1.11 0 0 0-.506.935v2.718c0 .133.06.258.164.34.274.217.63.47.938.664a8.645 8.645 0 0 1-5.838-1.728v-2.258z"/><path d="M29.412 20.463a1.775 1.775 0 0 0-1.739-.096l-5.302 2.58a1.834 1.834 0 0 0-1.825-1.808l-3.04.001c-1.499-1.313-3.415-2.116-5.157-2.159a212.69 212.69 0 0 0-3.979-.056v-.874H2.329v10.051H8.37v-1.204c1.657.957 6.012 3.356 8.079 3.356.047 0 .093-.001.137-.004 3.635-.205 12.209-6.282 12.775-6.686a1.817 1.817 0 0 0 .053-3.102zM7.509 27.237H3.187v-8.32h4.322v8.32zm21.407-4.414a.303.303 0 0 0-.038.024c-.089.063-8.908 6.346-12.342 6.54a1.764 1.764 0 0 1-.105.003c-1.813 0-6.233-2.402-8.064-3.492v-6.106c.716.003 2.25.015 3.959.056 1.591.038 3.358.804 4.727 2.047l.123.112 3.368-.001c.535 0 .97.438.97.976s-.435.977-.969.977h-6.188v.866h6.188c.593 0 1.116-.29 1.45-.733l6.051-2.944c.297-.146.628-.127.909.05s.44.469.44.801a.95.95 0 0 1-.479.825zM16.721 12.938h-.859v.803h.859v-.803zM16.721 14.539h-.859v.803h.859v-.803zM16.721 16.139h-.859v.802h.859v-.802z"/></symbol><symbol id="icon-how-5" viewBox="0 0 32 32"><path d="M4.124 29.091h23.775c.118-2.634-.076-7.005-1.743-9.085l-.06-.075-3.643-1.777c.079-.259.118-.497.134-.671a1.204 1.204 0 0 0-.089-.585c-.601-1.397-1.873-2.132-2.572-2.446.213-.417.351-.865.417-1.323.396-.108.714-.413.819-.82l.425-1.678a1.109 1.109 0 0 0-.395-1.152c1.199-2.646-.809-5.14-.918-5.272-2.175-2.284-4.921-1.857-5.067-1.832-3.964.807-5.494 3.758-4.63 7.221a1.112 1.112 0 0 0-.268 1.035l.427 1.68c.104.404.42.708.813.817a4.267 4.267 0 0 0 1.023 2.207v1.331c-5.689 2.831-2.084 1.025-6.643 3.266-.009.042-2.139 2.241-1.823 8.761l.019.398zm22.949-.836H23.16v-1.597l2.588-5.756c1.297 2.091 1.345 6.083 1.325 7.353zm-5.34-10.843c-.151 1.685-1.102 1.176-1.689 2.474-.462-.493-.601-1.085-.477-1.719.224-1.163-.506-1.508-.326-2.73l.027-.028v-.004c.016-.017.16-.184.201-.236 1.548.656 2.293 1.875 2.263 2.243zm-8.305-1.325a4.5 4.5 0 0 0 2.519.771c.879 0 1.713-.248 2.429-.706.099.961.486 1.153.349 1.86-.026.131-.04.261-.048.388l-2.665 2.918-3.406-3.731.822-.417v-1.082zm-1.072-3.571V8.055c.415-.745.98-1.286 1.683-1.61 1.882 1.035 4.048 2.579 5.501 4.132-.001 1.979.006 1.984-.008 2.147l-.001.01c-.113 1.797-1.634 3.286-3.584 3.286-1.896 0-3.47-1.446-3.584-3.304a2.237 2.237 0 0 1-.007-.201zm-.53 5.473 4.186 4.585 2.81-3.078c.064.18.154.349.257.513l-3.068 3.728-4.575-5.559.389-.189zm8.571-6.146v-1.292l.32-.356c.018.654.09-.118-.32 1.648zm-5.032-8.646c.17.01 2.454-.338 4.26 1.556.071.087 1.541 1.926.95 3.939-.202-.896-.554-2.043-1.111-2.591l-.609.589c.55.541.911 2.188 1.048 3.042-2.521-2.563-5.774-4.186-5.818-4.213-.163.099-1.539.353-2.539 2.24l-.048.09v1.386l-.126.001c-.635-2.979.581-5.346 3.992-6.04zm-4.082 6.9.216.851v.895l-.36-1.414c-.053-.211.108-.291.143-.333zm-.63 8.464 5.359 6.512 3.626-4.406c.394.343.584.392 1.42.809l-.282-.93c-.072-.236.212-.615.383-.789.382-.201.7-.488.939-.843l2.958 1.443-2.753 6.123v1.772H9.72V26.48l-2.754-6.123 3.687-1.798zm-4.378 2.342 2.588 5.755v1.597H4.95c-.02-1.27.029-5.26 1.325-7.351z"/></symbol><symbol id="icon-how-6" viewBox="0 0 32 32"><path d="M3.018 26.77h9.923a3.029 3.029 0 0 0 2.743 1.74h.627c1.189 0 2.24-.682 2.743-1.74h9.928c1.023 0 1.855-.843 1.855-1.879V6.881c0-1.036-.832-1.879-1.855-1.879H27.98v-.839c0-.691-.555-1.253-1.236-1.253H5.25c-.682 0-1.236.562-1.236 1.253v.839h-.995c-1.023 0-1.855.843-1.855 1.879v18.01c0 1.036.832 1.879 1.855 1.879zm23.725-3.865H16.618V8.348c2.34.31 4.155 2.339 4.155 4.794v.565l-.147-.033c-.159-.035-.327-.006-.465.084s-.236.231-.271.393l-.984 4.538a.626.626 0 0 0 .471.745l2.127.475a1.582 1.582 0 0 0 1.881-1.226l.569-2.624a1.606 1.606 0 0 0-1.204-1.911l-.74-.165v-.841c0-3.147-2.367-5.744-5.391-6.06v-2.92h10.126l-.001 18.743zm-5.779-7.873 1.518.339c.19.043.305.226.264.418l-.569 2.624a.366.366 0 0 1-.412.272l-1.52-.34.719-3.313zM5.25 4.162h10.132v2.919c-3.027.313-5.397 2.912-5.397 6.061v.841l-.741.166a1.574 1.574 0 0 0-.992.702c-.228.361-.302.79-.211 1.207l.568 2.621a1.593 1.593 0 0 0 1.549 1.266c.112 0 .223-.012.337-.037l2.118-.474a.626.626 0 0 0 .47-.745l-.984-4.538a.618.618 0 0 0-.737-.477l-.141.032v-.564c0-2.457 1.817-4.487 4.161-4.795v14.558H5.25V4.162zm5.775 10.871.72 3.313-1.512.338a.35.35 0 0 1-.415-.27l-.569-2.627a.35.35 0 0 1 .262-.416l1.515-.339zM2.4 6.881c0-.345.277-.626.618-.626h.995v16.65c0 .691.555 1.253 1.236 1.253h21.494c.682 0 1.236-.562 1.236-1.253V6.255h1.002c.341 0 .618.281.618.626v18.01a.623.623 0 0 1-.618.626H18.632a.62.62 0 0 0-.591.443 1.805 1.805 0 0 1-1.732 1.297h-.627a1.81 1.81 0 0 1-1.734-1.304.62.62 0 0 0-.589-.435H3.017a.623.623 0 0 1-.618-.626V6.882z"/></symbol><symbol id="icon-facebook" viewBox="0 0 31 32"><path fill="#436eab" style="fill:var(--color1,#436eab)" d="M26.318 2.314H4.767c-.779 0-1.527.307-2.078.853s-.861 1.287-.861 2.06V26.59c0 .773.31 1.514.861 2.06s1.299.853 2.078.853h8.403v-9.244H9.313v-4.351h3.857v-3.316c0-3.772 2.265-5.856 5.735-5.856 1.662 0 3.399.294 3.399.294v3.702H20.39c-1.886 0-2.475 1.16-2.475 2.351v2.825h4.211l-.673 4.351h-3.538v9.244h8.403c.779 0 1.527-.307 2.078-.853s.861-1.287.861-2.06V5.227c0-.773-.31-1.514-.861-2.06s-1.299-.853-2.078-.853z"/></symbol><symbol id="icon-Arrow-left" viewBox="0 0 54 32"><path d="M52 14a2 2 0 1 1 0 4v-4zM.586 17.414a2 2 0 0 1 0-2.828L13.314 1.858a2 2 0 1 1 2.828 2.828L4.828 16l11.314 11.314a2 2 0 1 1-2.828 2.828L.586 17.414zM52 18H2v-4h50v4z"/></symbol><symbol id="icon-Arrow-right" viewBox="0 0 54 32"><path d="M2 14a2 2 0 1 0 0 4v-4zm51.414 3.414a2 2 0 0 0 0-2.828L40.686 1.858a2 2 0 1 0-2.828 2.828L49.172 16 37.858 27.314a2 2 0 1 0 2.828 2.828l12.728-12.728zM2 18h50v-4H2v4z"/></symbol><symbol id="footer-phone" viewBox="0 0 20 20"><path d="M2.91.002a1.233 1.233 0 0 0-.87.423L.42 2.281c.002-.006-.006-.005-.052.063a.416.416 0 0 0-.057.115c-.66 2.188-.217 4.596.86 6.886 1.078 2.29 2.798 4.48 4.771 6.279 1.974 1.798 4.201 3.205 6.325 3.903 2.123.697 4.182.688 5.708-.464a.413.413 0 0 0 .046-.042c.04-.042.042-.047.035-.04l.006-.009 1.614-1.848a1.352 1.352 0 0 0-.083-1.847l-3.829-3.625a1.228 1.228 0 0 0-1.775.087l-1.732 1.983c-1.406-.424-2.608-1.143-3.765-2.237C7.335 10.39 6.534 9.21 5.996 7.794L7.728 5.81a1.352 1.352 0 0 0-.084-1.848L3.816.338A1.224 1.224 0 0 0 2.91.001Zm.037.813a.458.458 0 0 1 .338.13L7.113 4.57a.492.492 0 0 1 .032.69L5.23 7.45a.416.416 0 0 0-.078.416c.581 1.65 1.519 3.005 2.808 4.226 1.29 1.221 2.672 2.065 4.306 2.51a.379.379 0 0 0 .39-.12l1.916-2.19a.447.447 0 0 1 .662-.033l3.83 3.625c.196.187.21.484.03.69l-1.6 1.831c-1.253.936-3.017.988-4.992.34-1.983-.653-4.136-2.002-6.041-3.738-1.906-1.736-3.564-3.856-4.583-6.021-1.009-2.143-1.375-4.31-.82-6.22L2.622.979a.461.461 0 0 1 .325-.163Z"/></symbol></defs></svg>