<svg width="18" height="14" viewBox="0 0 18 14" fill="none" xmlns="http://www.w3.org/2000/svg">
<path d="M15.8833 0.662248C15.1991 0.952775 14.5433 1.30752 13.9174 1.70317C12.6585 2.48928 11.5076 3.42535 10.4281 4.42362C9.34905 5.42435 8.34447 6.49524 7.3946 7.60876C7.15701 7.88721 6.09337 9.12699 6.09337 9.12699L1.66988 2.8357L0 7.22893L5.98195 14C6.56283 12.8838 7.12186 11.782 7.67018 10.8246C7.80644 10.5812 7.94912 10.3521 8.08551 10.1194C8.08551 10.1194 8.78751 8.94816 8.97212 8.65312C9.71036 7.47307 10.5083 6.32359 11.387 5.23162C12.2667 4.14165 13.223 3.10108 14.3071 2.18632C14.8465 1.72593 15.4207 1.30025 16.0359 0.929805C16.6499 0.558632 17.3022 0.233606 18 0C17.2741 0.13554 16.5659 0.370921 15.8833 0.662248Z" fill="#FF6B09"/>
</svg>
