<svg width="62" height="62" viewBox="0 0 62 62" fill="none" xmlns="http://www.w3.org/2000/svg">
<g clip-path="url(#clip0_1_2694)">
<path d="M48.6619 9.83594H28.4873C27.174 9.83594 26.1056 10.9043 26.1056 12.2176V20.5687L11.1177 26.8595C10.948 26.9307 10.8326 27.0909 10.8196 27.2745C10.8066 27.4582 10.8974 27.6336 11.0554 27.7283L12.9668 28.8723V41.0632C11.9893 41.286 11.2559 42.1608 11.2559 43.2075V44.3827C11.2559 44.6521 11.4745 44.8708 11.744 44.8708H15.1667C15.4362 44.8708 15.6548 44.6521 15.6548 44.3827V43.2075C15.6548 42.1622 14.9212 41.2886 13.943 41.0643V29.4566L15.4543 30.3611C15.4078 30.7096 15.4484 29.7537 15.4327 36.0367C15.4327 38.1021 20.7229 39.2085 26.1056 39.2719V48.7857C26.1056 49.2771 26.2561 49.7341 26.5134 50.1135C26.9414 50.7466 27.6659 51.1639 28.486 51.1639H48.6606C49.9727 51.1639 51.0401 50.0962 51.0401 48.7844C51.0401 48.8496 51.0374 46.7691 51.0401 12.2179C51.0401 10.9224 49.9689 9.83594 48.6619 9.83594ZM14.6786 43.2075V43.8946H12.2321V43.2075C12.2321 42.5313 12.7796 41.9809 13.4523 41.9809C14.1285 41.9809 14.6786 42.5313 14.6786 43.2075ZM48.6619 50.1851H28.4873C28.0032 50.1851 27.5756 49.9401 27.3227 49.5682C27.1713 49.3442 27.0828 49.0744 27.0828 48.7844V45.4866H50.0614V48.7857C50.0614 49.5502 49.4243 50.1851 48.6619 50.1851ZM50.0614 44.5104H27.0818V39.2748C29.7099 39.2447 37.7611 38.6659 37.7611 36.0367C37.7582 32.0897 37.7681 30.4892 37.7487 30.3537L42.1317 27.7283C42.2897 27.6336 42.3805 27.4582 42.3675 27.2745C42.3545 27.0909 42.2391 26.9307 42.0695 26.8595L27.0818 20.5686V16.492H50.0614V44.5104ZM26.5937 32.7961C23.8863 32.7961 18.6735 33.1458 16.4089 34.6246C16.4232 30.1014 16.2519 30.396 16.8089 30.0124C18.2157 28.9765 22.2393 28.2533 26.5937 28.2533C28.4929 28.2533 36.7849 28.7754 36.7849 30.531V34.6252C34.4991 33.1327 29.3127 32.7961 26.5937 32.7961ZM27.0828 12.2179C27.0828 11.4442 27.7123 10.8147 28.486 10.8147H48.6606C49.4351 10.8147 50.0614 11.453 50.0614 12.2176V15.5158H27.0828V12.2179ZM26.5937 21.4225L40.8028 27.3864L37.282 29.4933C35.4102 27.637 29.2184 27.2771 26.5937 27.2771C23.9656 27.2771 17.7733 27.6382 15.9055 29.4938L12.3837 27.3864L26.5937 21.4225ZM16.4089 36.0367C16.4089 35.2468 19.9069 33.7723 26.5937 33.7723C33.2847 33.7723 36.7849 35.2468 36.7849 36.0367C36.7849 36.8273 33.2847 38.3018 26.5937 38.3018C19.9069 38.3018 16.4089 36.8273 16.4089 36.0367Z" fill="#FF6B09"/>
<path d="M38.5733 46.2227C37.6832 46.2227 36.959 46.9465 36.959 47.8369C36.959 48.7273 37.6832 49.4518 38.5733 49.4518C39.4637 49.4518 40.1879 48.7273 40.1879 47.8369C40.1879 46.9465 39.4637 46.2227 38.5733 46.2227ZM38.5733 48.4756C38.2215 48.4756 37.9352 48.189 37.9352 47.8369C37.9352 47.4848 38.2215 47.1988 38.5733 47.1988C38.9253 47.1988 39.2117 47.4848 39.2117 47.8369C39.2117 48.189 38.9253 48.4756 38.5733 48.4756Z" fill="#FF6B09"/>
<path d="M40.4355 12.677H36.7119V13.6532H40.4355V12.677Z" fill="#FF6B09"/>
</g>
<path d="M61 9.23529V1H1V61H61V52.7647" stroke="#FF6B09" stroke-width="2"/>
<defs>
<clipPath id="clip0_1_2694">
<rect width="41.8723" height="41" fill="white" transform="translate(10 10)"/>
</clipPath>
</defs>
</svg>
