<svg width="62" height="62" viewBox="0 0 62 62" fill="none" xmlns="http://www.w3.org/2000/svg">
<g clip-path="url(#clip0_1_2687)">
<path d="M13.8721 50.6984C18.1733 50.6984 43.0568 50.6984 47.353 50.6984C47.5188 46.8803 47.2453 40.5454 44.8978 37.5302L44.8129 37.4219L39.6831 34.8463C39.7945 34.4706 39.8493 34.1264 39.8713 33.8735C39.8967 33.5698 39.8548 33.2846 39.7464 33.0262C38.9001 31.0011 37.1093 29.9356 36.1243 29.4815C36.4245 28.8767 36.618 28.2274 36.7115 27.564C37.2691 27.4069 37.7176 26.965 37.8646 26.3755L38.4634 23.943C38.5695 23.5139 38.5029 23.0688 38.2748 22.6903C38.1767 22.5272 38.0498 22.3898 37.9074 22.2723C39.5956 18.4377 36.7681 14.8219 36.6141 14.6316C33.5519 11.3208 29.6834 11.9399 29.4789 11.9765C23.8963 13.1455 21.7419 17.424 22.9582 22.4419C22.5979 22.841 22.4466 23.3971 22.5802 23.9424L23.1819 26.3776C23.3278 26.9628 23.7727 27.4031 24.3264 27.5621C24.4972 28.7769 25.0114 29.8758 25.7667 30.7613V32.6897C17.7555 36.7923 22.8316 34.1749 16.4116 37.4228C16.3989 37.4834 13.3991 40.6715 13.845 50.1211L13.8721 50.6984ZM46.1896 49.4863H40.6793V47.1716L44.3238 38.8285C46.1495 41.8588 46.2173 47.6448 46.1896 49.4863ZM38.6691 33.7705C38.4564 36.2132 37.1169 35.4748 36.2899 37.3568C35.6395 36.6416 35.4439 35.784 35.6187 34.866C35.9345 33.1804 34.9057 32.6797 35.1599 30.9086L35.1985 30.868V30.8624C35.2203 30.838 35.4232 30.5963 35.4819 30.52C37.662 31.4704 38.7116 33.2379 38.6691 33.7705ZM26.9737 31.8505C27.9857 32.5525 29.2074 32.9673 30.5215 32.9673C31.759 32.9673 32.9344 32.6072 33.9421 31.9441C34.0818 33.3365 34.626 33.6153 34.4329 34.6399C34.3967 34.8301 34.3771 35.0175 34.3655 35.2019L30.6128 39.4313L25.8157 34.023L26.9737 33.4183V31.8505H26.9737ZM25.465 26.6744V24.3295C25.465 23.466 25.465 20.0401 25.465 20.2093C26.049 19.1291 26.8452 18.3458 27.8347 17.8762C30.4848 19.3756 33.5352 21.6134 35.5809 23.8655C35.579 26.7336 35.589 26.7414 35.57 26.977L35.5687 26.992C35.409 29.5964 33.2676 31.7552 30.5215 31.7552C27.8518 31.7552 25.6353 29.6591 25.475 26.9662C25.4667 26.8697 25.465 26.773 25.465 26.6744ZM24.7177 34.6079L30.6128 41.2536L34.5706 36.793C34.6611 37.0534 34.788 37.2995 34.9331 37.5371L30.6128 42.9398L24.1705 34.8826L24.7177 34.6079ZM36.7879 25.699V23.8267C36.8409 23.7659 37.2909 23.25 37.2379 23.3108C37.2627 24.2588 37.3651 23.1399 36.7879 25.699ZM29.7023 13.1677C29.9417 13.1826 33.1587 12.6783 35.7012 15.4232C35.8013 15.5489 37.8709 18.2154 37.0394 21.1325C36.7549 19.8345 36.2588 18.1711 35.4749 17.3772L34.618 18.2307C35.392 19.0147 35.9004 21.4021 36.0941 22.6398C32.5436 18.9245 27.9635 16.573 27.9007 16.5333C27.671 16.6761 25.7328 17.0446 24.3252 19.7805L24.258 19.9113V21.9206C24.1976 21.9213 24.0201 21.9231 24.0806 21.9225C23.1862 17.6046 24.8989 14.1745 29.7023 13.1677ZM23.9534 23.1694L24.258 24.4035V25.7005L23.7518 23.6515C23.6775 23.3461 23.9037 23.2303 23.9534 23.1694ZM23.066 35.4371L30.6128 44.8758L35.7189 38.4895C36.2744 38.9866 36.5414 39.0571 37.7191 39.6627L37.3219 38.3153C37.2211 37.9732 37.6201 37.4246 37.8611 37.1725C38.3991 36.8806 38.8475 36.4644 39.183 35.9506L43.349 38.0425L39.4723 46.9177V49.4863H21.7527V46.9174L17.8743 38.0434L23.066 35.4371ZM16.9007 38.8311L20.5458 47.1719V49.4863H15.0355C15.0078 47.6454 15.0761 41.8623 16.9007 38.8311Z" fill="#FF6B09"/>
</g>
<path d="M61 9.23529V1H1V61H61V52.7647" stroke="#FF6B09" stroke-width="2"/>
<defs>
<clipPath id="clip0_1_2687">
<rect width="33.1915" height="40" fill="white" transform="translate(14 11)"/>
</clipPath>
</defs>
</svg>
