<svg width="62" height="62" viewBox="0 0 62 62" fill="none" xmlns="http://www.w3.org/2000/svg">
<g clip-path="url(#clip0_1_2703)">
<path d="M14.6772 28.1776C14.6772 28.6237 14 28.6237 14 28.1776C14 18.6926 21.6926 11 31.1776 11C40.6667 11 48.3552 18.6926 48.3552 28.1776C48.3552 28.6237 47.6821 28.6237 47.6821 28.1776C47.6821 21.7664 37.1468 21.7624 37.1468 28.1776C37.1468 28.6237 36.4534 28.6237 36.4534 28.1776C36.4534 21.7826 25.9019 21.7826 25.9019 28.1776C25.9019 28.6237 25.2084 28.6237 25.2084 28.1776C25.2084 21.7948 14.6772 21.7502 14.6772 28.1776ZM25.2693 25.6878C25.4517 21.9976 26.0316 18.6886 26.8751 16.1622C27.5483 14.1549 28.3998 12.6302 29.365 11.7745C22.1225 12.5653 16.2587 18.056 14.9489 25.1768C17.4428 21.5799 23.2011 21.8678 25.2693 25.6878ZM36.4006 25.5215C36.2141 21.9732 35.6504 18.7981 34.8394 16.3771C32.747 10.1119 29.6083 10.1119 27.5158 16.3771C26.7048 18.7981 26.1452 21.9732 25.9546 25.5215C28.2052 21.6975 34.15 21.6975 36.4006 25.5215ZM47.4063 25.1768C46.1006 18.056 40.2368 12.5653 32.9903 11.7745C33.9594 12.6302 34.807 14.1549 35.4801 16.1622C36.3236 18.6886 36.9035 21.9976 37.086 25.6878C39.1663 21.8475 44.9408 21.6204 47.4063 25.1768Z" fill="#FF6B09"/>
<path d="M28.9234 36.0376V32.5494C28.2948 32.9671 27.8001 33.6121 27.8001 34.3989C27.8001 35.1655 28.3029 35.6725 28.9234 36.0376ZM29.6006 37.1205C28.3962 36.5689 27.127 35.924 27.127 34.3989C27.127 32.8252 28.3232 32.0383 29.6006 31.4502V37.1205Z" fill="#FF6B09"/>
<path d="M33.4319 41.3002V44.8281C34.0686 44.4064 34.5674 43.7576 34.5674 42.9709C34.5674 42.1963 34.0564 41.6732 33.4319 41.3002ZM32.7588 40.2134C33.9672 40.773 35.2446 41.438 35.2446 42.9709C35.2446 44.5483 34.0402 45.335 32.7588 45.919V40.2134Z" fill="#FF6B09"/>
<path d="M33.4318 28.5791C36.2055 29.2198 39.0563 31.2961 39.0563 34.3984C39.0563 37.0546 34.5673 36.9572 34.5673 34.3984C34.5673 33.6076 34.0685 32.9588 33.4318 32.5411V37.5047C35.9987 38.3441 39.0644 39.8486 39.0644 42.9712C39.0644 46.0775 36.2136 48.1497 33.4318 48.7864C33.4197 51.7427 28.9306 51.7386 28.9225 48.7824C27.341 48.4174 25.9663 47.6793 24.9728 46.702C23.9306 45.672 23.3142 44.3784 23.3142 42.9712C23.3142 40.3555 27.7992 40.3555 27.7992 42.9712C27.7992 43.7538 28.2939 44.3986 28.9225 44.8163V39.8568C26.3759 39.0335 23.2939 37.4844 23.2939 34.3903C23.2939 31.284 26.1447 29.2117 28.9225 28.575C28.9347 25.6188 33.4237 25.6228 33.4318 28.5791ZM29.5997 28.5872V29.1266C26.9598 29.6497 23.9671 31.3407 23.9671 34.3903C23.9671 37.3222 27.2518 38.6361 29.5997 39.362V45.9153C28.3304 45.3354 27.1261 44.5527 27.1261 42.9712C27.1261 41.2436 23.9874 41.2436 23.9874 42.9712C23.9874 44.1918 24.5308 45.3192 25.4472 46.2194C26.6111 47.3711 28.0222 47.9186 29.5997 48.2308V48.7742C29.5997 50.8546 32.7587 50.8546 32.7587 48.7742V48.2349C35.4067 47.7077 38.3872 46.0167 38.3872 42.9712C38.3872 40.0109 35.1106 38.7375 32.7587 37.9954V31.9693V31.4462C34.032 32.0261 35.2445 32.8087 35.2445 34.3984C35.2445 36.0813 38.3791 36.1503 38.3791 34.3984C38.3791 31.3529 35.4026 29.6578 32.7587 29.1306V28.5872C32.7587 26.5069 29.5997 26.5069 29.5997 28.5872Z" fill="#FF6B09"/>
</g>
<path d="M61 9.23529V1H1V61H61V52.7647" stroke="#FF6B09" stroke-width="2"/>
<defs>
<clipPath id="clip0_1_2703">
<rect width="35" height="40" fill="white" transform="translate(14 11)"/>
</clipPath>
</defs>
</svg>
