<svg viewBox="0 0 20 20" fill="none" xmlns="http://www.w3.org/2000/svg">
  <path d="M2.91.002a1.233 1.233 0 0 0-.87.423L.42 2.281c.002-.006-.006-.005-.052.063a.416.416 0 0 0-.057.115c-.66 2.188-.217 4.596.86 6.886 1.078 2.29 2.798 4.48 4.771 6.279 1.974 1.798 4.201 3.205 6.325 3.903 2.123.697 4.182.688 5.708-.464a.413.413 0 0 0 .046-.042c.04-.042.042-.047.035-.04l.006-.009 1.614-1.848a1.352 1.352 0 0 0-.083-1.847l-3.829-3.625a1.228 1.228 0 0 0-1.775.087l-1.732 1.983c-1.406-.424-2.608-1.143-3.765-2.237C7.335 10.39 6.534 9.21 5.996 7.794L7.728 5.81a1.352 1.352 0 0 0-.084-1.848L3.816.338A1.224 1.224 0 0 0 2.91.001Zm.037.813a.458.458 0 0 1 .338.13L7.113 4.57c.198.187.211.485.032.69L5.23 7.45a.416.416 0 0 0-.078.416c.581 1.65 1.519 3.005 2.808 4.226 1.29 1.221 2.672 2.065 4.306 2.51a.379.379 0 0 0 .39-.12l1.916-2.19a.447.447 0 0 1 .662-.033l3.83 3.625c.196.187.21.484.03.69l-1.6 1.831c-1.253.936-3.017.988-4.992.34-1.983-.653-4.136-2.002-6.041-3.738-1.906-1.736-3.564-3.856-4.583-6.021-1.009-2.143-1.375-4.31-.82-6.22L2.622.979a.461.461 0 0 1 .325-.163Z" fill="#FF6B09"/>
</svg>
